<svg version="1.2" xmlns="http://www.w3.org/2000/svg" viewBox="0 0 1574 1572" width="1574" height="1572">
	<title>reagr-svg</title>
	<style>
		.s0 { fill: #e4002b } 
		.s1 { fill: #ffffff } 
	</style>
	<path id="Layer" class="s0" d="m0 781.6c-2.5 434.2 347.9 788.2 782.4 790.4 434.5 2.5 788.6-347.8 790.8-782 2.2-434-347.9-787.8-782.4-790-1.4 0-2.7 0-4.5 0-432.2-0.2-784.1 349-786.3 781.6z"/>
	<path id="Layer" fill-rule="evenodd" class="s1" d="m1061.6 1244.2h-550.2c-43.5 0-78.9-35.4-78.9-78.9v-323.2h-66c-31.9 0-60.5-19.2-72.8-48.5-12.3-29.6-5.6-63.2 17-85.9l419.8-421.6c14.7-14.6 35-23.2 55.9-23.2 20.8 0 41.1 8.6 55.8 23.2l419.8 421.6c22.6 22.7 29.3 56.3 17 85.9-12.3 29.5-40.9 48.5-72.8 48.5h-65.6v323.2c0 43.5-35.4 78.9-79 78.9zm-275.1-913c-2.9 0-5.4 1-7.5 3.1l-419.8 421.5c-3.1 3.1-3.9 7.6-2.2 11.5 1.7 3.9 5.4 6.5 9.7 6.5h100.1c18.8 0 34.2 15.3 34.2 34.1v357.4c0 5.8 4.8 10.6 10.6 10.6h550.2c5.8 0 10.6-4.8 10.6-10.6v-357.4c0-18.8 15.4-34.1 34.2-34.1h100.1c4.3 0 8-2.6 9.7-6.5 1.7-3.9 0.7-8.4-2.2-11.5l-420.2-421.5c-2-2.1-4.6-3.1-7.5-3.1z"/>
</svg>